<svg
  xmlns="http://www.w3.org/2000/svg"
  width="254"
  height="254"
  viewBox="0 0 128 128"
>
  <defs>
    <linearGradient
      id="deviconVscodium0"
      x1="199.997"
      x2="296.665"
      y1="214.302"
      y2="307.573"
      gradientTransform="translate(-256 -272.64)scale(1.28)"
      gradientUnits="userSpaceOnUse"
    >
      <stop offset="0" stop-color="#62a0ea"></stop>
      <stop offset="1" stop-color="#1a5fb4"></stop>
    </linearGradient>
  </defs>
  <path
    fill="url(#deviconVscodium0)"
    d="M61.773 2.91c-3.652 2.344-4.707 7.2-2.351 10.84C72.359 33.79 75.414 48.902 74.09 62.148c-5.356 25.364-16.996 30.508-27.172 30.508c-9.934 0-7.273-16.344.195-21.129c4.457-2.785 10.164-4.593 14.547-4.593c4.34 0 7.86-3.508 7.86-7.836c0-4.332-3.52-7.84-7.86-7.84c-5.117 0-10.14 1.078-14.824 2.906c.957-4.516 1.309-9.398.07-14.586c-1.879-7.883-7.285-15.406-16.68-22.703a7.86 7.86 0 0 0-5.8-1.598a7.86 7.86 0 0 0-5.235 2.961a7.826 7.826 0 0 0 1.38 11c7.652 5.946 10.179 10.344 11.042 13.965c.867 3.621.172 7.504-1.566 12.844c-2.219 7.191-4.793 13.613-5.922 19.773c-.555 3.032-.602 6.328-.746 8.965c-5.512-5.37-7.668-12.46-7.668-22.824c0-4.328-3.52-7.84-7.86-7.836s-7.855 3.508-7.855 7.836c0 14.152 4.137 27.617 15.23 36.602c10.04 9.562 35.57 6.027 35.57 21.386c0 4.332 6.345 6.442 10.684 6.442c4.454 0 10.055-2.977 10.055-6.442c0-17.426 18.363-28.015 48.59-27.969c4.344.008 7.863-3.5 7.871-7.828c.008-4.332-3.504-7.847-7.848-7.855c-2.066 0-4.082.07-6.066.187c3.379-7.949 4.879-16.699 4.566-26.148c-.14-4.328-3.773-7.723-8.113-7.582c-4.344.144-7.746 3.77-7.601 8.098c.41 12.375-.055 23.425-9.274 29.253c-2.62 1.653-5.672 3.09-8.562 3.09c2.246-6.101 3.941-12.547 4.632-19.488c.446-4.434.493-9.7-.015-13.785c-.781-6.336-1.73-13.524.676-18.938c2.16-4.66 7-6.613 14.109-6.613c4.336-.004 7.852-3.512 7.852-7.836c.003-4.332-3.512-7.844-7.852-7.848c-10.563 0-18.57 5.56-23.11 12.274c-2.37-5.066-5.261-10.29-8.753-15.7a7.87 7.87 0 0 0-4.942-3.413a7.9 7.9 0 0 0-3.066-.059a7.9 7.9 0 0 0-2.856 1.121m0 0"
  ></path>
</svg>
